999
Fixture for issue #72 (GoSurvey). Two entities that arrive carrying a layer name
999
with no LAYER table row of its own - the shape a file written by other software
999
routinely has. GHOST is on an LWPOLYLINE, GHOST2 on a solid HATCH: the two
999
entity kinds the exporter's addLayerName sweep does not visit. Deliberately no
999
TABLES section at all, so the only way either name can reach the exported LAYER
999
table is the sweep this fixture exists to test.
0
SECTION
2
ENTITIES
0
LWPOLYLINE
5
100
8
GHOST
100
AcDbEntity
100
AcDbPolyline
90
3
70
0
10
0.0
20
0.0
10
10.0
20
5.0
10
20.0
20
0.0
0
HATCH
5
101
8
GHOST2
100
AcDbEntity
100
AcDbHatch
2
SOLID
70
1
91
1
92
3
72
0
73
1
93
4
10
40.0
20
0.0
10
60.0
20
0.0
10
60.0
20
20.0
10
40.0
20
20.0
97
0
75
0
76
1
47
1.0
98
0
0
ENDSEC
0
EOF
