21800 0 2 4 
16 Autodesk AutoCAD 20 ASM 231.3.1.65535 NT 24 Tue Aug 18 09:19:23 2026 
25.4 1e-06 1e-10 
asmheader $-1 -1 13 231.3.1.65535 #
body $-1 -1 $-1 $2 $-1 $3 #
lump $-1 -1 $-1 $-1 $4 $1 #
transform $-1 -1 -2.2204460492503126e-16 0 -1 0 1 0 1 0 -2.2204460492503126e-16 0.84375 0 -1.8735013540549512e-16 1 I F F #
shell $-1 -1 $-1 $-1 $-1 $5 $-1 $2 #
face $6 -1 $-1 $7 $8 $4 $-1 $9 forward single #
persubent-acadSolidHistory-attrib $-1 -1 $-1 $-1 $5 1 55 1000000000 1001 #
face $10 -1 $-1 $11 $12 $4 $-1 $13 forward single #
loop $-1 -1 $-1 $14 $15 $5 #
cone-surface $-1 -1 $-1 -3.7470027081099028e-16 0 1.625 4.4408920985006252e-16 0 -1 -0.46875 0 -2.081668171172168e-16 1 F F -0.51449575542752657 0.85749292571254421 0.46875 F F F F F #
persubent-acadSolidHistory-attrib $-1 -1 $-1 $-1 $7 1 55 1000000000 1002 #
face $16 -1 $-1 $17 $18 $4 $-1 $19 forward single #
loop $-1 -1 $-1 $-1 $20 $7 #
plane-surface $-1 -1 $-1 -7.2164496600635155e-16 0 2.40625 -4.4408920985006252e-16 0 1 1 0 4.4408920985006252e-16 F F F F F #
loop $-1 -1 $-1 $-1 $21 $5 #
coedge $-1 -1 $-1 $15 $15 $20 $22 I $8 0 $-1 #
persubent-acadSolidHistory-attrib $-1 -1 $-1 $-1 $11 1 54 1000000000 1001 #
face $23 -1 $-1 $-1 $24 $4 $-1 $25 forward single #
loop $-1 -1 $-1 $26 $27 $11 #
cone-surface $-1 -1 $-1 0 0 0 0 0 1 0.46875 0 0 1 F F -0.48564293117863205 0.87415727612153771 0.46875 F F F F F #
coedge $-1 -1 $-1 $20 $20 $15 $22 F $12 0 $-1 #
coedge $-1 -1 $-1 $21 $21 $-1 $28 I $14 0 $-1 #
edge $-1 -1 $-1 $29 0 $29 6.2831853071795862 $20 $30 forward 7 unknown #
persubent-acadSolidHistory-attrib $-1 -1 $-1 $-1 $17 1 54 1000000000 1002 #
loop $-1 -1 $-1 $-1 $31 $17 #
plane-surface $-1 -1 $-1 0 0 -0.84375 0 0 -1 -1 0 0 F F F F F #
loop $-1 -1 $-1 $-1 $32 $11 #
coedge $-1 -1 $-1 $27 $27 $31 $33 I $18 0 $-1 #
edge $-1 -1 $-1 $34 1 $34 0 $21 $-1 forward 7 unknown #
vertex $-1 -1 $-1 $22 0 $35 #
ellipse-curve $-1 -1 $-1 -7.2164496600635155e-16 0 2.40625 -4.4408920985006252e-16 0 1 -0.9375 0 -4.163336342344336e-16 1 F F #
coedge $-1 -1 $-1 $31 $31 $27 $33 F $24 0 $-1 #
coedge $-1 -1 $-1 $32 $32 $-1 $36 I $26 0 $-1 #
edge $-1 -1 $-1 $37 0 $37 6.2831853071795862 $31 $38 forward 7 unknown #
vertex $39 -1 $-1 $-1 2 $40 #
point $-1 -1 $-1 -0.93750000000000067 0 2.4062499999999996 #
edge $-1 -1 $-1 $34 1 $34 0 $32 $-1 forward 7 unknown #
vertex $-1 -1 $-1 $33 0 $41 #
ellipse-curve $-1 -1 $-1 0 0 -0.84375 0 0 -1 0.9375 0 0 1 F F #
vertedge-sys-attrib $-1 -1 $-1 $-1 $34 4 $36 0 $28 0 $-1 2 $-1 2 #
point $-1 -1 $-1 0 0 0.84375 #
point $-1 -1 $-1 0.9375 0 -0.84375 #
End-of-ASM-data 
