21800 0 2 4 
16 Autodesk AutoCAD 20 ASM 231.3.1.65535 NT 24 Mon Aug 17 14:26:39 2026 
25.4 1e-06 1e-10 
asmheader $-1 -1 13 231.3.1.65535 #
body $-1 -1 $-1 $2 $-1 $3 #
lump $-1 -1 $-1 $-1 $4 $1 #
transform $-1 -1 -2.2204460492503126e-16 0 1 0 1 0 -1 0 -2.2204460492503126e-16 1.3584022824694866 0 -3.6854337914782314e-18 1 I F F #
shell $-1 -1 $-1 $-1 $-1 $5 $-1 $2 #
face $6 -1 $-1 $7 $8 $4 $-1 $9 forward single #
persubent-acadSolidHistory-attrib $-1 -1 $-1 $-1 $5 1 29 1000000000 1001 #
face $10 -1 $-1 $11 $12 $4 $-1 $13 reversed single #
loop $-1 -1 $-1 $-1 $14 $5 #
torus-surface $-1 -1 $-1 -3.944304526105059e-31 3.3195436500000035 -0.01659771825000167 -1 0 2.2204460492503126e-16 3.3195436500000035 1.1875 2.2204460492503126e-16 0 1 F F F F F #
persubent-acadSolidHistory-attrib $-1 -1 $-1 $-1 $7 1 29 1000000000 1002 #
face $15 -1 $-1 $-1 $16 $4 $-1 $17 forward single #
loop $-1 -1 $-1 $-1 $18 $7 #
plane-surface $-1 -1 $-1 5.2119904511366119e-16 0.97227182464025663 2.3306741071097434 -1.5700924586837762e-16 -0.70710678118654691 -0.70710678118654813 -1 0 2.2204460492503126e-16 F F F F F #
coedge $-1 -1 $-1 $19 $20 $21 $22 I $8 0 $-1 #
persubent-acadSolidHistory-attrib $-1 -1 $-1 $-1 $11 2 29 1000000000 1003 30 1000000000 1002 #
loop $-1 -1 $-1 $-1 $21 $11 #
plane-surface $-1 -1 $-1 0 0 -0.016597718250000001 0 0 -1 -1 0 0 F F F F F #
coedge $-1 -1 $-1 $18 $18 $23 $24 F $12 0 $-1 #
coedge $-1 -1 $-1 $23 $14 $20 $25 F $8 0 $-1 #
coedge $-1 -1 $-1 $14 $23 $19 $25 I $8 0 $-1 #
coedge $-1 -1 $-1 $21 $21 $14 $22 F $16 0 $-1 #
edge $-1 -1 $-1 $26 -3.1415926535897931 $26 3.1415926535897931 $14 $27 forward 7 unknown #
coedge $-1 -1 $-1 $20 $19 $18 $24 I $8 0 $-1 #
edge $-1 -1 $-1 $28 -3.1415926535897931 $28 3.1415926535897931 $23 $29 forward 7 unknown #
edge $-1 -1 $-1 $26 0 $28 0.78539816339744717 $19 $30 forward 7 tangent #
vertex $-1 -1 $-1 $22 0 $31 #
ellipse-curve $-1 -1 $-1 0 0 -0.016597718249999893 -2.2204460492503126e-16 0 -1 -0 -1.1875 0 1 F F #
vertex $-1 -1 $-1 $25 1 $32 #
ellipse-curve $-1 -1 $-1 5.2119904511366119e-16 0.97227182464025663 2.3306741071097434 1.5700924586837762e-16 0.70710678118654691 0.70710678118654813 1.8644847946869807e-16 -0.83968930265902586 0.83968930265902442 1 F F #
ellipse-curve $-1 -1 $-1 1.4542680739874814e-16 3.3195436500000044 -0.016597718250000115 -1 0 2.2204460492503126e-16 4.9303806576313227e-32 -2.1320436500000044 2.2204460492503131e-16 1 F F #
point $-1 -1 $-1 1.4542680739874819e-16 1.1875 -0.016597718249999893 #
point $-1 -1 $-1 4.8017737304371126e-16 1.8119611272992824 1.490984804450719 #
End-of-ASM-data 
