21800 0 2 4 
16 Autodesk AutoCAD 20 ASM 231.3.1.65535 NT 24 Tue Aug 18 09:29:28 2026 
25.4 1e-06 1e-10 
asmheader $-1 -1 13 231.3.1.65535 #
body $-1 -1 $-1 $2 $-1 $3 #
lump $-1 -1 $-1 $-1 $4 $1 #
transform $-1 -1 -2.2204460492503126e-16 0 -1 0 1 0 1 0 -2.2204460492503126e-16 0.0625 0 -1.3877787807814454e-17 1 I F F #
shell $-1 -1 $-1 $-1 $-1 $5 $-1 $2 #
face $6 -1 $-1 $7 $8 $4 $-1 $9 reversed single #
persubent-acadSolidHistory-attrib $-1 -1 $-1 $-1 $5 1 89 1000000000 1001 #
face $10 -1 $-1 $11 $12 $4 $-1 $13 forward single #
loop $-1 -1 $-1 $14 $15 $5 #
cone-surface $-1 -1 $-1 0 0 0 0 0 1 1.095 0 0 1 F F 0 1 1.095 F F F F F #
persubent-acadSolidHistory-attrib $-1 -1 $-1 $-1 $7 1 89 1000000000 1002 #
face $16 -1 $-1 $17 $18 $4 $-1 $19 forward single #
loop $-1 -1 $-1 $20 $21 $7 #
cone-surface $-1 -1 $-1 0 0 0 0 0 1 2.0649999999999999 0 0 1 F F 0 1 2.0649999999999999 F F F F F #
loop $-1 -1 $-1 $-1 $22 $5 #
coedge $-1 -1 $-1 $15 $15 $23 $24 I $8 0 $-1 #
persubent-acadSolidHistory-attrib $-1 -1 $-1 $-1 $11 1 89 1000000000 1003 #
face $25 -1 $-1 $-1 $26 $4 $-1 $27 forward single #
loop $-1 -1 $-1 $28 $23 $11 #
plane-surface $-1 -1 $-1 0 0 -0.0625 0 0 -1 -1 0 0 F F F F F #
loop $-1 -1 $-1 $-1 $29 $7 #
coedge $-1 -1 $-1 $21 $21 $30 $31 I $12 0 $-1 #
coedge $-1 -1 $-1 $22 $22 $32 $33 I $14 0 $-1 #
coedge $-1 -1 $-1 $23 $23 $15 $24 F $18 0 $-1 #
edge $-1 -1 $-1 $34 0 $34 6.2831853071795862 $23 $35 forward 7 unknown #
persubent-acadSolidHistory-attrib $-1 -1 $-1 $-1 $17 1 89 1000000000 1004 #
loop $-1 -1 $-1 $36 $32 $17 #
plane-surface $-1 -1 $-1 0 0 0.0625 0 0 1 1 0 0 F F F F F #
loop $-1 -1 $-1 $-1 $30 $11 #
coedge $-1 -1 $-1 $29 $29 $37 $38 I $20 0 $-1 #
coedge $-1 -1 $-1 $30 $30 $21 $31 F $28 0 $-1 #
edge $-1 -1 $-1 $39 0 $39 6.2831853071795862 $30 $40 forward 7 unknown #
coedge $-1 -1 $-1 $32 $32 $22 $33 F $26 0 $-1 #
edge $-1 -1 $-1 $41 0 $41 6.2831853071795862 $32 $42 forward 7 unknown #
vertex $-1 -1 $-1 $24 0 $43 #
ellipse-curve $-1 -1 $-1 0 0 -0.0625 -0 -0 1 1.095 0 0 1 F F #
loop $-1 -1 $-1 $-1 $37 $17 #
coedge $-1 -1 $-1 $37 $37 $29 $38 F $36 0 $-1 #
edge $-1 -1 $-1 $44 0 $44 6.2831853071795862 $37 $45 forward 7 unknown #
vertex $-1 -1 $-1 $31 0 $46 #
ellipse-curve $-1 -1 $-1 0 0 -0.0625 0 0 -1 2.0649999999999999 0 0 1 F F #
vertex $-1 -1 $-1 $33 0 $47 #
ellipse-curve $-1 -1 $-1 0 0 0.0625 -0 -0 -1 1.095 0 0 1 F F #
point $-1 -1 $-1 1.095 0 -0.0625 #
vertex $-1 -1 $-1 $38 0 $48 #
ellipse-curve $-1 -1 $-1 0 0 0.0625 0 0 1 2.0649999999999999 0 0 1 F F #
point $-1 -1 $-1 2.0649999999999999 0 -0.0625 #
point $-1 -1 $-1 1.095 0 0.0625 #
point $-1 -1 $-1 2.0649999999999999 0 0.0625 #
End-of-ASM-data 
