21800 0 2 4 
16 Autodesk AutoCAD 20 ASM 231.3.1.65535 NT 24 Mon Aug 17 14:26:39 2026 
25.4 1e-06 1e-10 
asmheader $-1 -1 13 231.3.1.65535 #
body $-1 -1 $-1 $2 $-1 $3 #
lump $-1 -1 $-1 $-1 $4 $1 #
transform $-1 -1 -2.2204460492503126e-16 0 -1 0 1 0 1 0 -2.2204460492503126e-16 0.22727272727272718 0 -7.4435407332823003e-17 1 I F F #
shell $-1 -1 $-1 $-1 $-1 $5 $-1 $2 #
face $6 -1 $-1 $7 $8 $4 $-1 $9 forward single #
persubent-acadSolidHistory-attrib $-1 -1 $-1 $-1 $5 1 21 1000000000 1001 #
face $10 -1 $-1 $11 $12 $4 $-1 $13 forward single #
loop $-1 -1 $-1 $14 $15 $5 #
cone-surface $-1 -1 $-1 0 0 0 0 0 1 1.2954545454545456 0 0 1 F F 0 1 1.2954545454545456 F F F F F #
persubent-acadSolidHistory-attrib $-1 -1 $-1 $-1 $7 1 21 1000000000 1002 #
face $16 -1 $-1 $-1 $17 $4 $-1 $18 forward single #
loop $-1 -1 $-1 $-1 $19 $7 #
plane-surface $-1 -1 $-1 0 0 -0.33522727272727282 0 0 -1 -1 0 0 F F F F F #
loop $-1 -1 $-1 $-1 $20 $5 #
coedge $-1 -1 $-1 $15 $15 $19 $21 I $8 0 $-1 #
persubent-acadSolidHistory-attrib $-1 -1 $-1 $-1 $11 1 21 1000000000 1003 #
loop $-1 -1 $-1 $-1 $22 $11 #
plane-surface $-1 -1 $-1 0 0 0.33522727272727282 0 0 1 1 0 0 F F F F F #
coedge $-1 -1 $-1 $19 $19 $15 $21 F $12 0 $-1 #
coedge $-1 -1 $-1 $20 $20 $22 $23 I $14 0 $-1 #
edge $-1 -1 $-1 $24 0 $24 6.2831853071795862 $19 $25 forward 7 unknown #
coedge $-1 -1 $-1 $22 $22 $20 $23 F $17 0 $-1 #
edge $-1 -1 $-1 $26 0 $26 6.2831853071795862 $22 $27 forward 7 unknown #
vertex $-1 -1 $-1 $21 0 $28 #
ellipse-curve $-1 -1 $-1 0 0 -0.33522727272727282 0 0 -1 1.2954545454545456 0 0 1 F F #
vertex $-1 -1 $-1 $23 0 $29 #
ellipse-curve $-1 -1 $-1 0 0 0.33522727272727282 0 0 1 1.2954545454545456 0 0 1 F F #
point $-1 -1 $-1 1.2954545454545456 0 -0.33522727272727282 #
point $-1 -1 $-1 1.2954545454545456 0 0.33522727272727282 #
End-of-ASM-data 
