21800 0 2 4 
16 Autodesk AutoCAD 20 ASM 231.3.1.65535 NT 24 Tue Aug 18 09:19:23 2026 
25.4 1e-06 1e-10 
asmheader $-1 -1 13 231.3.1.65535 #
body $-1 -1 $-1 $2 $-1 $3 #
lump $-1 -1 $-1 $-1 $4 $1 #
transform $-1 -1 -2.2204460492503131e-16 0 1 0 1 0 -1 0 -2.2204460492503131e-16 0 0 -3.3306690738754696e-16 1 I F F #
shell $-1 -1 $-1 $-1 $-1 $5 $-1 $2 #
face $6 -1 $-1 $7 $8 $4 $-1 $9 forward single #
persubent-acadSolidHistory-attrib $-1 -1 $-1 $-1 $5 1 46 1000000000 1001 #
face $10 -1 $-1 $11 $12 $4 $-1 $13 forward single #
loop $-1 -1 $-1 $14 $15 $5 #
cone-surface $-1 -1 $-1 1.6653345369377348e-16 0.75 -3.6977854932234928e-32 -2.2204460492503131e-16 1 4.9303806576313238e-32 -2.6367796834847468e-16 0 -1.1875 1 F F 0 1 1.1875 F F F F F #
persubent-acadSolidHistory-attrib $-1 -1 $-1 $-1 $7 1 46 1000000000 1003 #
face $16 -1 $-1 $17 $18 $4 $-1 $19 forward single #
loop $-1 -1 $-1 $-1 $20 $7 #
plane-surface $-1 -1 $-1 0 1.5 0 -2.2204460492503131e-16 1 4.9303806576313238e-32 -2.2204460492503131e-16 0 -1 F F F F F #
loop $-1 -1 $-1 $-1 $21 $5 #
coedge $-1 -1 $-1 $22 $22 $23 $24 I $8 0 $-1 #
persubent-acadSolidHistory-attrib $-1 -1 $-1 $-1 $11 1 45 1000000000 1001 #
face $25 -1 $-1 $26 $27 $4 $-1 $28 forward single #
loop $-1 -1 $-1 $29 $30 $11 #
cone-surface $-1 -1 $-1 0 0 0 0 0 1 1.1875 0 0 1 F F 0 1 1.1875 F F F F F #
coedge $-1 -1 $-1 $20 $20 $21 $31 F $12 0 $-1 #
coedge $-1 -1 $-1 $21 $21 $20 $31 I $14 0 $-1 #
coedge $-1 -1 $-1 $15 $15 $30 $32 I $8 0 $-1 #
coedge $-1 -1 $-1 $30 $30 $15 $24 F $18 0 $-1 #
edge $-1 -1 $-1 $33 -1.5707963267948966 $34 1.5707963267948968 $23 $35 forward 7 unknown #
persubent-acadSolidHistory-attrib $-1 -1 $-1 $-1 $17 1 45 1000000000 1002 #
face $36 -1 $-1 $-1 $37 $4 $-1 $38 forward single #
loop $-1 -1 $-1 $-1 $39 $17 #
plane-surface $-1 -1 $-1 0 0 -1.5 0 0 -1 -1 0 0 F F F F F #
loop $-1 -1 $-1 $40 $41 $11 #
coedge $-1 -1 $-1 $23 $23 $22 $32 F $18 0 $-1 #
edge $-1 -1 $-1 $42 0 $42 6.2831853071795862 $20 $43 forward 7 unknown #
edge $-1 -1 $-1 $34 1.5707963267948968 $33 4.7123889803846897 $30 $44 forward 7 unknown #
vertex $-1 -1 $-1 $32 1 $45 #
vertex $-1 -1 $-1 $32 0 $46 #
ellipse-curve $-1 -1 $-1 3.3306690738754696e-16 0 -7.3955709864469857e-32 1.3221831231021265e-16 -0.70710678118654757 -0.70710678118654757 -5.2735593669694936e-16 1.1875 -1.1875 0.70710678118654757 F F #
persubent-acadSolidHistory-attrib $-1 -1 $-1 $-1 $26 1 45 1000000000 1003 #
loop $-1 -1 $-1 $-1 $47 $26 #
plane-surface $-1 -1 $-1 0 0 1.5 0 0 1 1 0 0 F F F F F #
coedge $-1 -1 $-1 $39 $39 $41 $48 F $27 0 $-1 #
loop $-1 -1 $-1 $-1 $49 $11 #
coedge $-1 -1 $-1 $41 $41 $39 $48 I $29 0 $-1 #
vertex $-1 -1 $-1 $31 0 $50 #
ellipse-curve $-1 -1 $-1 0 1.5 0 -2.2204460492503131e-16 1 4.9303806576313238e-32 -2.6367796834847468e-16 0 -1.1875 1 F F #
ellipse-curve $-1 -1 $-1 3.3306690738754696e-16 0 -7.3955709864469857e-32 1.3221831231021265e-16 -0.70710678118654757 0.70710678118654757 0 -1.1875 -1.1875 0.70710678118654757 F F #
point $-1 -1 $-1 -1.1874999999999996 -2.6367796834847468e-16 -9.8607613152626476e-32 #
point $-1 -1 $-1 1.1875000000000004 2.6367796834847468e-16 -9.8607613152626476e-32 #
coedge $-1 -1 $-1 $47 $47 $49 $51 F $37 0 $-1 #
edge $-1 -1 $-1 $52 0 $52 6.2831853071795862 $39 $53 forward 7 unknown #
coedge $-1 -1 $-1 $49 $49 $47 $51 I $40 0 $-1 #
point $-1 -1 $-1 -2.6367796834847468e-16 1.5 -1.1875 #
edge $-1 -1 $-1 $54 0 $54 6.2831853071795862 $47 $55 forward 7 unknown #
vertex $-1 -1 $-1 $48 0 $56 #
ellipse-curve $-1 -1 $-1 0 0 -1.5 0 0 -1 1.1875 0 0 1 F F #
vertex $-1 -1 $-1 $51 0 $57 #
ellipse-curve $-1 -1 $-1 0 0 1.5 0 0 1 1.1875 0 0 1 F F #
point $-1 -1 $-1 1.1875 0 -1.5 #
point $-1 -1 $-1 1.1875 0 1.5 #
End-of-ASM-data 
