700 312 1 0         
16 Autodesk AutoCAD 20 ASM 231.6.1.65535 NT 24 Thu Sep 10 08:56:14 2026 
25.39999999999999858 9.999999999999999547e-07 1.000000000000000036e-10 
body $-1 -1 $-1 $1 $-1 $2 #
lump $-1 -1 $-1 $-1 $3 $0 #
transform $-1 -1 1 0 0 0 0 -1 0 1 0 4998.959574820337366 4998.903993843354328 0.2549973184954024141 0.999999999999999889 rotate no_reflect no_shear #
shell $-1 -1 $-1 $-1 $-1 $4 $-1 $1 #
face $5 -1 $-1 $6 $7 $3 $-1 $8 reversed single #
color-adesk-attrib $-1 -1 $-1 $-1 $4 256 #
face $9 -1 $-1 $10 $11 $3 $-1 $12 reversed single #
loop $-1 -1 $-1 $-1 $13 $4 #
cone-surface $-1 -1 $-1 0.1295862730896819581 -1.547360103293359712 -0.2887117764850398727 0 1 0 -0.03099993799999685093 0 0 1 I I 0 1 0.03099993799999685093 forward I I I I #
color-adesk-attrib $-1 -1 $-1 $-1 $6 256 #
face $14 -1 $-1 $15 $16 $3 $-1 $17 reversed single #
loop $-1 -1 $-1 $-1 $18 $6 #
cone-surface $-1 -1 $-1 -0.2787138368322912285 -1.547360103293359712 0.1195883334369333972 0 1 0 -0.03099993799999684746 0 0 1 I I 0 1 0.03099993799999684746 forward I I I I #
coedge $-1 -1 $-1 $19 $20 $21 $22 reversed $7 $-1 #
color-adesk-attrib $-1 -1 $-1 $-1 $10 256 #
face $23 -1 $-1 $24 $25 $3 $-1 $26 reversed single #
loop $-1 -1 $-1 $-1 $27 $10 #
cone-surface $-1 -1 $-1 0.1295862730896819581 -1.547360103293359712 0.2887117764850400947 0 1 0 -0.03099993799999684746 0 0 1 I I 0 1 0.03099993799999684746 forward I I I I #
coedge $-1 -1 $-1 $28 $29 $30 $31 reversed $11 $-1 #
coedge $-1 -1 $-1 $32 $13 $20 $33 reversed $7 $-1 #
coedge $-1 -1 $-1 $13 $32 $19 $33 forward $7 $-1 #
coedge $-1 -1 $-1 $21 $21 $13 $22 forward $34 $-1 #
edge $35 -1 $-1 $36 -3.141592653589793116 $36 3.141592653589793116 $21 $37 forward @7 unknown #
color-adesk-attrib $-1 -1 $-1 $-1 $15 256 #
face $38 -1 $-1 $39 $40 $3 $-1 $41 reversed single #
loop $-1 -1 $-1 $-1 $42 $15 #
cone-surface $-1 -1 $-1 0.2987097161377887389 -1.547360103293359712 0.1195883334369332723 0 1 0 -0.03099993799999685093 0 0 1 I I 0 1 0.03099993799999685093 forward I I I I #
coedge $-1 -1 $-1 $43 $44 $45 $46 reversed $16 $-1 #
coedge $-1 -1 $-1 $47 $18 $29 $48 reversed $11 $-1 #
coedge $-1 -1 $-1 $18 $47 $28 $48 forward $11 $-1 #
coedge $-1 -1 $-1 $30 $30 $18 $31 forward $49 $-1 #
edge $50 -1 $-1 $51 -3.141592653589793116 $51 3.141592653589793116 $30 $52 forward @7 unknown #
coedge $-1 -1 $-1 $20 $19 $53 $54 reversed $7 $-1 #
edge $55 -1 $-1 $56 1.557361026510998059 $36 1.630361026510998013 $19 $57 forward @7 tangent #
loop $-1 -1 $-1 $49 $21 $58 #
color-adesk-attrib $-1 -1 $-1 $-1 $22 256 #
vertex $-1 -1 $-1 $33 $59 #
ellipse-curve $-1 -1 $-1 0.1295862730896819581 0.08299766249541984386 -0.2887117764850398727 -0 -1 -0 -0.03099993799999685093 0 0 1 I I #
color-adesk-attrib $-1 -1 $-1 $-1 $24 256 #
face $60 -1 $-1 $61 $62 $3 $-1 $63 reversed single #
loop $-1 -1 $-1 $-1 $64 $24 #
cone-surface $-1 -1 $-1 0.2987097161377887389 -1.547360103293359712 -0.1195883334369330642 0 1 0 -0.03099993799999685093 0 0 1 I I 0 1 0.03099993799999685093 forward I I I I #
coedge $-1 -1 $-1 $65 $66 $67 $68 reversed $25 $-1 #
coedge $-1 -1 $-1 $69 $27 $44 $70 reversed $16 $-1 #
coedge $-1 -1 $-1 $27 $69 $43 $70 forward $16 $-1 #
coedge $-1 -1 $-1 $45 $45 $27 $46 forward $71 $-1 #
edge $72 -1 $-1 $73 -3.141592653589793116 $73 3.141592653589793116 $45 $74 forward @7 unknown #
coedge $-1 -1 $-1 $29 $28 $75 $76 reversed $11 $-1 #
edge $77 -1 $-1 $78 1.557361026510998059 $51 1.630361026510998013 $28 $79 forward @7 tangent #
loop $-1 -1 $-1 $71 $30 $58 #
color-adesk-attrib $-1 -1 $-1 $-1 $31 256 #
vertex $-1 -1 $-1 $48 $80 #
ellipse-curve $-1 -1 $-1 -0.2787138368322912285 0.08299766249541984386 0.1195883334369333972 -0 -1 -0 -0.03099993799999684746 0 0 1 I I #
coedge $-1 -1 $-1 $53 $53 $32 $54 forward $81 $-1 #
edge $82 -1 $-1 $56 -3.141592653589793116 $56 3.141592653589793116 $53 $83 forward @7 unknown #
color-adesk-attrib $-1 -1 $-1 $-1 $33 256 #
vertex $-1 -1 $-1 $33 $84 #
straight-curve $-1 -1 $-1 0.1605862110896787986 -1.547360103293359712 -0.2887117764850398727 0 0.9999979999998984681 0 I I #
face $85 -1 $-1 $86 $34 $3 $-1 $87 forward single #
point $-1 -1 $-1 0.1605862110896787986 0.08299766249541984386 -0.2887117764850398727 #
color-adesk-attrib $-1 -1 $-1 $-1 $39 256 #
face $88 -1 $-1 $89 $90 $3 $-1 $91 reversed single #
loop $-1 -1 $-1 $-1 $92 $39 #
cone-surface $-1 -1 $-1 -0.1095903937841843923 -1.547360103293359712 0.2887117764850400947 0 1 0 -0.03099993799999685093 0 0 1 I I 0 1 0.03099993799999685093 forward I I I I #
coedge $-1 -1 $-1 $93 $94 $95 $96 reversed $40 $-1 #
coedge $-1 -1 $-1 $97 $42 $66 $98 reversed $25 $-1 #
coedge $-1 -1 $-1 $42 $97 $65 $98 forward $25 $-1 #
coedge $-1 -1 $-1 $67 $67 $42 $68 forward $99 $-1 #
edge $100 -1 $-1 $101 -3.141592653589793116 $101 3.141592653589793116 $67 $102 forward @7 unknown #
coedge $-1 -1 $-1 $44 $43 $103 $104 reversed $16 $-1 #
edge $105 -1 $-1 $106 1.557361026510998059 $73 1.630361026510998013 $43 $107 forward @7 tangent #
loop $-1 -1 $-1 $99 $45 $58 #
color-adesk-attrib $-1 -1 $-1 $-1 $46 256 #
vertex $-1 -1 $-1 $70 $108 #
ellipse-curve $-1 -1 $-1 0.1295862730896819581 0.08299766249541984386 0.2887117764850400947 -0 -1 -0 -0.03099993799999684746 0 0 1 I I #
coedge $-1 -1 $-1 $75 $75 $47 $76 forward $109 $-1 #
edge $110 -1 $-1 $78 -3.141592653589793116 $78 3.141592653589793116 $75 $111 forward @7 unknown #
color-adesk-attrib $-1 -1 $-1 $-1 $48 256 #
vertex $-1 -1 $-1 $48 $112 #
straight-curve $-1 -1 $-1 -0.247713898832294388 -1.547360103293359712 0.1195883334369333972 0 0.9999979999998984681 0 I I #
point $-1 -1 $-1 -0.247713898832294388 0.08299766249541984386 0.1195883334369333972 #
loop $-1 -1 $-1 $109 $53 $113 #
color-adesk-attrib $-1 -1 $-1 $-1 $54 256 #
ellipse-curve $-1 -1 $-1 0.1295862730896819581 0.009997808495427307207 -0.2887117764850398727 0 1 0 -0.03099993799999685093 0 0 1 I I #
point $-1 -1 $-1 0.1605862110896787986 0.009997808495427307207 -0.2887117764850398727 #
color-adesk-attrib $-1 -1 $-1 $-1 $58 256 #
face $114 -1 $-1 $113 $115 $3 $-1 $116 forward single #
plane-surface $-1 -1 $-1 0.009997939652748727424 0.0829976624954198855 6.167893356549969475e-18 0 1 0 0 0 0.9999979999998984681 forward_v I I I I #
color-adesk-attrib $-1 -1 $-1 $-1 $61 256 #
face $117 -1 $-1 $118 $119 $3 $-1 $120 reversed single #
loop $-1 -1 $-1 $-1 $121 $61 #
cone-surface $-1 -1 $-1 -0.2787138368322912285 -1.547360103293359712 -0.1195883334369329809 0 1 0 -0.03099993799999685093 0 0 1 I I 0 1 0.03099993799999685093 forward I I I I #
coedge $-1 -1 $-1 $122 $123 $124 $125 reversed $62 $-1 #
coedge $-1 -1 $-1 $126 $64 $94 $127 reversed $40 $-1 #
coedge $-1 -1 $-1 $64 $126 $93 $127 forward $40 $-1 #
coedge $-1 -1 $-1 $95 $95 $64 $96 forward $128 $-1 #
edge $129 -1 $-1 $130 -3.141592653589793116 $130 3.141592653589793116 $95 $131 forward @7 unknown #
coedge $-1 -1 $-1 $66 $65 $132 $133 reversed $25 $-1 #
edge $134 -1 $-1 $135 1.557361026510998059 $101 1.630361026510998013 $65 $136 forward @7 tangent #
loop $-1 -1 $-1 $128 $67 $58 #
color-adesk-attrib $-1 -1 $-1 $-1 $68 256 #
vertex $-1 -1 $-1 $98 $137 #
ellipse-curve $-1 -1 $-1 0.2987097161377887389 0.08299766249541984386 0.1195883334369332723 -0 -1 -0 -0.03099993799999685093 0 0 1 I I #
coedge $-1 -1 $-1 $103 $103 $69 $104 forward $138 $-1 #
edge $139 -1 $-1 $106 -3.141592653589793116 $106 3.141592653589793116 $103 $140 forward @7 unknown #
color-adesk-attrib $-1 -1 $-1 $-1 $70 256 #
vertex $-1 -1 $-1 $70 $141 #
straight-curve $-1 -1 $-1 0.1605862110896787986 -1.547360103293359712 0.2887117764850400947 0 0.9999979999998984681 0 I I #
point $-1 -1 $-1 0.1605862110896787986 0.08299766249541984386 0.2887117764850400947 #
loop $-1 -1 $-1 $138 $75 $113 #
color-adesk-attrib $-1 -1 $-1 $-1 $76 256 #
ellipse-curve $-1 -1 $-1 -0.2787138368322912285 0.009997808495427307207 0.1195883334369333972 0 1 0 -0.03099993799999684746 0 0 1 I I #
point $-1 -1 $-1 -0.247713898832294388 0.009997808495427307207 0.1195883334369333972 #
face $142 -1 $-1 $143 $81 $3 $-1 $144 reversed single #
color-adesk-attrib $-1 -1 $-1 $-1 $86 256 #
loop $-1 -1 $-1 $-1 $145 $86 #
cone-surface $-1 -1 $-1 0.009997939652748755179 0.009997808495427307207 0 0 1 0 -0.3749992499999619255 0 0 1 I I 0 1 0.3749992499999619255 forward I I I I #
color-adesk-attrib $-1 -1 $-1 $-1 $89 256 #
face $146 -1 $-1 $147 $148 $3 $-1 $149 reversed single #
loop $-1 -1 $-1 $-1 $150 $89 #
cone-surface $-1 -1 $-1 -0.1095903937841845033 -1.547360103293359712 -0.2887117764850398172 0 1 0 -0.03099993799999685093 0 0 1 I I 0 1 0.03099993799999685093 forward I I I I #
coedge $-1 -1 $-1 $151 $152 $153 $154 reversed $90 $-1 #
coedge $-1 -1 $-1 $155 $92 $123 $156 reversed $62 $-1 #
coedge $-1 -1 $-1 $92 $155 $122 $156 forward $62 $-1 #
coedge $-1 -1 $-1 $124 $124 $92 $125 forward $157 $-1 #
edge $158 -1 $-1 $159 -3.141592653589793116 $159 3.141592653589793116 $124 $160 forward @7 unknown #
coedge $-1 -1 $-1 $94 $93 $161 $162 reversed $40 $-1 #
edge $163 -1 $-1 $164 1.557361026510998059 $130 1.630361026510998013 $93 $165 forward @7 tangent #
loop $-1 -1 $-1 $157 $95 $58 #
color-adesk-attrib $-1 -1 $-1 $-1 $96 256 #
vertex $-1 -1 $-1 $127 $166 #
ellipse-curve $-1 -1 $-1 0.2987097161377887389 0.08299766249541984386 -0.1195883334369330642 -0 -1 -0 -0.03099993799999685093 0 0 1 I I #
coedge $-1 -1 $-1 $132 $132 $97 $133 forward $167 $-1 #
edge $168 -1 $-1 $135 -3.141592653589793116 $135 3.141592653589793116 $132 $169 forward @7 unknown #
color-adesk-attrib $-1 -1 $-1 $-1 $98 256 #
vertex $-1 -1 $-1 $98 $170 #
straight-curve $-1 -1 $-1 0.3297096541377856349 -1.547360103293359712 0.1195883334369332723 0 0.9999979999998984681 0 I I #
point $-1 -1 $-1 0.3297096541377856349 0.08299766249541984386 0.1195883334369332723 #
loop $-1 -1 $-1 $167 $103 $113 #
color-adesk-attrib $-1 -1 $-1 $-1 $104 256 #
ellipse-curve $-1 -1 $-1 0.1295862730896819581 0.009997808495427307207 0.2887117764850400947 0 1 0 -0.03099993799999684746 0 0 1 I I #
point $-1 -1 $-1 0.1605862110896787986 0.009997808495427307207 0.2887117764850400947 #
color-adesk-attrib $-1 -1 $-1 $-1 $113 256 #
face $171 -1 $-1 $172 $173 $3 $-1 $174 reversed single #
plane-surface $-1 -1 $-1 0.009997939652748727424 0.009997808495427307207 6.167893356549969475e-18 0 1 0 0 0 0.9999979999998984681 forward_v I I I I #
coedge $-1 -1 $-1 $175 $176 $177 $178 reversed $115 $-1 #
color-adesk-attrib $-1 -1 $-1 $-1 $118 256 #
face $179 -1 $-1 $180 $181 $3 $-1 $182 forward single #
loop $-1 -1 $-1 $-1 $183 $118 #
cone-surface $-1 -1 $-1 0.009997939652748755179 0.4458714295642794978 0 0 -1 0 0.1674996649999830056 0 0 1 I I 0 1 0.1674996649999830056 forward I I I I #
coedge $-1 -1 $-1 $184 $185 $186 $187 reversed $119 $-1 #
coedge $-1 -1 $-1 $188 $121 $152 $189 reversed $90 $-1 #
coedge $-1 -1 $-1 $121 $188 $151 $189 forward $90 $-1 #
coedge $-1 -1 $-1 $153 $153 $121 $154 forward $190 $-1 #
edge $191 -1 $-1 $192 -3.141592653589793116 $192 3.141592653589793116 $153 $193 forward @7 unknown #
coedge $-1 -1 $-1 $123 $122 $194 $195 reversed $62 $-1 #
edge $196 -1 $-1 $197 1.557361026510998059 $159 1.630361026510998013 $122 $198 forward @7 tangent #
loop $-1 -1 $-1 $190 $124 $58 #
color-adesk-attrib $-1 -1 $-1 $-1 $125 256 #
vertex $-1 -1 $-1 $156 $199 #
ellipse-curve $-1 -1 $-1 -0.1095903937841843923 0.08299766249541984386 0.2887117764850400947 -0 -1 -0 -0.03099993799999685093 0 0 1 I I #
coedge $-1 -1 $-1 $161 $161 $126 $162 forward $200 $-1 #
edge $201 -1 $-1 $164 -3.141592653589793116 $164 3.141592653589793116 $161 $202 forward @7 unknown #
color-adesk-attrib $-1 -1 $-1 $-1 $127 256 #
vertex $-1 -1 $-1 $127 $203 #
straight-curve $-1 -1 $-1 0.3297096541377856349 -1.547360103293359712 -0.1195883334369330642 0 0.9999979999998984681 0 I I #
point $-1 -1 $-1 0.3297096541377856349 0.08299766249541984386 -0.1195883334369330642 #
loop $-1 -1 $-1 $200 $132 $113 #
color-adesk-attrib $-1 -1 $-1 $-1 $133 256 #
ellipse-curve $-1 -1 $-1 0.2987097161377887389 0.009997808495427307207 0.1195883334369332723 0 1 0 -0.03099993799999685093 0 0 1 I I #
point $-1 -1 $-1 0.3297096541377856349 0.009997808495427307207 0.1195883334369332723 #
color-adesk-attrib $-1 -1 $-1 $-1 $143 256 #
face $204 -1 $-1 $-1 $205 $3 $-1 $206 forward single #
loop $-1 -1 $-1 $207 $208 $143 #
plane-surface $-1 -1 $-1 0.009997939652748755179 0.2549973184954024141 0 -0 -1 -0 0 0 -0.9999979999998984681 forward_v I I I I #
coedge $-1 -1 $-1 $209 $145 $176 $210 forward $115 $-1 #
coedge $-1 -1 $-1 $145 $209 $175 $210 reversed $115 $-1 #
coedge $-1 -1 $-1 $177 $177 $145 $178 forward $211 $-1 #
edge $212 -1 $-1 $213 -3.141592653589793116 $213 3.141592653589793116 $177 $214 forward @7 unknown #
color-adesk-attrib $-1 -1 $-1 $-1 $147 256 #
face $215 -1 $-1 $58 $216 $3 $-1 $217 reversed single #
loop $-1 -1 $-1 $-1 $218 $147 #
cone-surface $-1 -1 $-1 0.009997939652748755179 0.009997808495427307207 0 0 -1 0 -0.2574994849999738822 0 0 1 I I 0 1 0.2574994849999738822 forward I I I I #
coedge $-1 -1 $-1 $219 $220 $221 $222 reversed $148 $-1 #
coedge $-1 -1 $-1 $223 $150 $185 $224 reversed $119 $-1 #
coedge $-1 -1 $-1 $150 $223 $184 $224 forward $119 $-1 #
coedge $-1 -1 $-1 $186 $186 $150 $187 forward $225 $-1 #
edge $226 -1 $-1 $227 -3.141592653589793116 $227 3.141592653589793116 $186 $228 forward @7 unknown #
coedge $-1 -1 $-1 $152 $151 $229 $230 reversed $90 $-1 #
edge $231 -1 $-1 $232 1.557361026510998059 $192 1.630361026510998013 $151 $233 forward @7 tangent #
loop $-1 -1 $-1 $225 $153 $58 #
color-adesk-attrib $-1 -1 $-1 $-1 $154 256 #
vertex $-1 -1 $-1 $189 $234 #
ellipse-curve $-1 -1 $-1 -0.2787138368322912285 0.08299766249541984386 -0.1195883334369329809 -0 -1 -0 -0.03099993799999685093 0 0 1 I I #
coedge $-1 -1 $-1 $194 $194 $155 $195 forward $235 $-1 #
edge $236 -1 $-1 $197 -3.141592653589793116 $197 3.141592653589793116 $194 $237 forward @7 unknown #
color-adesk-attrib $-1 -1 $-1 $-1 $156 256 #
vertex $-1 -1 $-1 $156 $238 #
straight-curve $-1 -1 $-1 -0.07859045578418753786 -1.547360103293359712 0.2887117764850400947 0 0.9999979999998984681 0 I I #
point $-1 -1 $-1 -0.07859045578418753786 0.08299766249541984386 0.2887117764850400947 #
loop $-1 -1 $-1 $235 $161 $113 #
color-adesk-attrib $-1 -1 $-1 $-1 $162 256 #
ellipse-curve $-1 -1 $-1 0.2987097161377887389 0.009997808495427307207 -0.1195883334369330642 0 1 0 -0.03099993799999685093 0 0 1 I I #
point $-1 -1 $-1 0.3297096541377856349 0.009997808495427307207 -0.1195883334369330642 #
color-adesk-attrib $-1 -1 $-1 $-1 $172 256 #
loop $-1 -1 $-1 $239 $240 $172 #
cone-surface $-1 -1 $-1 0.009997939652748755179 0.0829976624954198855 0 0 1 0 0.2209995579999775583 0 0 1 I I -0.1911751397345212988 0.9815559413235122044 0.2209995579999775583 forward I I I I #
loop $-1 -1 $-1 $-1 $241 $143 #
coedge $-1 -1 $-1 $208 $208 $242 $243 forward $173 $-1 #
coedge $-1 -1 $-1 $176 $175 $244 $245 reversed $115 $-1 #
edge $246 -1 $-1 $213 0 $247 0.07299999999999999545 $175 $248 forward @7 tangent #
loop $-1 -1 $-1 $-1 $177 $113 #
color-adesk-attrib $-1 -1 $-1 $-1 $178 256 #
vertex $-1 -1 $-1 $178 $249 #
ellipse-curve $-1 -1 $-1 0.009997939652748755179 0.009997808495427307207 0 0 -1 0 -0.3749992499999619255 -0 -0 1 I I #
color-adesk-attrib $-1 -1 $-1 $-1 $180 256 #
loop $-1 -1 $-1 $250 $221 $180 #
plane-surface $-1 -1 $-1 0.009997939652748743036 0.00499781849542781445 0 0 1 0 0 0 0.9999979999998984681 forward_v I I I I #
coedge $-1 -1 $-1 $251 $252 $253 $254 reversed $181 $-1 #
coedge $-1 -1 $-1 $242 $183 $220 $255 reversed $148 $-1 #
coedge $-1 -1 $-1 $183 $242 $219 $255 forward $148 $-1 #
coedge $-1 -1 $-1 $221 $221 $183 $222 forward $216 $-1 #
edge $256 -1 $-1 $257 -3.141592653589793116 $257 3.141592653589793116 $221 $258 forward @7 unknown #
coedge $-1 -1 $-1 $185 $184 $259 $260 reversed $119 $-1 #
edge $261 -1 $-1 $262 1.557361026510998059 $227 1.630361026510998013 $184 $263 forward @7 tangent #
loop $-1 -1 $-1 $264 $186 $58 #
color-adesk-attrib $-1 -1 $-1 $-1 $187 256 #
vertex $-1 -1 $-1 $224 $265 #
ellipse-curve $-1 -1 $-1 -0.1095903937841845033 0.08299766249541984386 -0.2887117764850398172 -0 -1 -0 -0.03099993799999685093 0 0 1 I I #
coedge $-1 -1 $-1 $229 $229 $188 $230 forward $266 $-1 #
edge $267 -1 $-1 $232 -3.141592653589793116 $232 3.141592653589793116 $229 $268 forward @7 unknown #
color-adesk-attrib $-1 -1 $-1 $-1 $189 256 #
vertex $-1 -1 $-1 $189 $269 #
straight-curve $-1 -1 $-1 -0.2477138988322943325 -1.547360103293359712 -0.1195883334369329809 0 0.9999979999998984681 0 I I #
point $-1 -1 $-1 -0.2477138988322943325 0.08299766249541984386 -0.1195883334369329809 #
loop $-1 -1 $-1 $266 $194 $113 #
color-adesk-attrib $-1 -1 $-1 $-1 $195 256 #
ellipse-curve $-1 -1 $-1 -0.1095903937841843923 0.009997808495427307207 0.2887117764850400947 0 1 0 -0.03099993799999685093 0 0 1 I I #
point $-1 -1 $-1 -0.07859045578418753786 0.009997808495427307207 0.2887117764850400947 #
loop $-1 -1 $-1 $-1 $270 $172 #
coedge $-1 -1 $-1 $240 $240 $271 $272 forward $205 $-1 #
coedge $-1 -1 $-1 $241 $241 $270 $273 reversed $207 $-1 #
coedge $-1 -1 $-1 $220 $219 $208 $243 reversed $148 $-1 #
edge $274 -1 $-1 $275 -3.141592653589793116 $275 3.141592653589793116 $208 $276 forward @7 unknown #
coedge $-1 -1 $-1 $244 $244 $209 $245 forward $264 $-1 #
edge $277 -1 $-1 $247 -3.141592653589793116 $247 3.141592653589793116 $209 $278 forward @7 unknown #
color-adesk-attrib $-1 -1 $-1 $-1 $210 256 #
vertex $-1 -1 $-1 $210 $279 #
straight-curve $-1 -1 $-1 0.3849971896527106807 0.009997808495427307207 4.592416311951114116e-17 0 0.9999979999998984681 0 I I #
point $-1 -1 $-1 0.3849971896527106807 0.009997808495427307207 4.592416311951114116e-17 #
loop $-1 -1 $-1 $-1 $280 $180 #
coedge $-1 -1 $-1 $281 $218 $252 $282 forward $181 $-1 #
coedge $-1 -1 $-1 $218 $281 $251 $282 reversed $181 $-1 #
coedge $-1 -1 $-1 $253 $253 $218 $254 forward $283 $-1 #
edge $284 -1 $-1 $285 -3.141592653589793116 $285 3.141592653589793116 $253 $286 forward @7 unknown #
edge $287 -1 $-1 $275 0.1908744928178821298 $257 0.4408744928178821021 $219 $288 forward @7 tangent #
color-adesk-attrib $-1 -1 $-1 $-1 $222 256 #
vertex $-1 -1 $-1 $255 $289 #
ellipse-curve $-1 -1 $-1 0.009997939652748755179 0.004997818495427810113 0 0 1 0 0.1674996649999830056 0 0 1 I I #
coedge $-1 -1 $-1 $259 $259 $223 $260 forward $290 $-1 #
edge $291 -1 $-1 $262 -3.141592653589793116 $262 3.141592653589793116 $259 $292 forward @7 unknown #
color-adesk-attrib $-1 -1 $-1 $-1 $224 256 #
vertex $-1 -1 $-1 $224 $293 #
straight-curve $-1 -1 $-1 -0.07859045578418764888 -1.547360103293359712 -0.2887117764850398172 0 0.9999979999998984681 0 I I #
loop $-1 -1 $-1 $294 $244 $58 #
point $-1 -1 $-1 -0.07859045578418764888 0.08299766249541984386 -0.2887117764850398172 #
loop $-1 -1 $-1 $290 $229 $113 #
color-adesk-attrib $-1 -1 $-1 $-1 $230 256 #
ellipse-curve $-1 -1 $-1 -0.2787138368322912285 0.009997808495427307207 -0.1195883334369329809 0 1 0 -0.03099993799999685093 0 0 1 I I #
point $-1 -1 $-1 -0.2477138988322943325 0.009997808495427307207 -0.1195883334369329809 #
coedge $-1 -1 $-1 $270 $270 $241 $273 forward $239 $-1 #
coedge $-1 -1 $-1 $271 $271 $240 $272 reversed $294 $-1 #
edge $295 -1 $-1 $296 0 $296 6.283185307179586232 $240 $297 forward @7 unknown #
edge $298 -1 $-1 $299 0 $299 6.283185307179586232 $270 $300 forward @7 unknown #
color-adesk-attrib $-1 -1 $-1 $-1 $243 256 #
vertex $-1 -1 $-1 $255 $301 #
ellipse-curve $-1 -1 $-1 0.009997939652748755179 0.2549973184954024141 0 -0 -1 -0 0.1674996649999830056 0 0 1 I I #
color-adesk-attrib $-1 -1 $-1 $-1 $245 256 #
ellipse-curve $-1 -1 $-1 0.009997939652748755179 0.0829976624954198855 0 0 1 0 -0.3749992499999619255 -0 -0 1 I I #
point $-1 -1 $-1 0.3849971896527106807 0.0829976624954198855 4.592416311951114116e-17 #
coedge $-1 -1 $-1 $280 $280 $281 $302 forward $250 $-1 #
coedge $-1 -1 $-1 $252 $251 $280 $302 reversed $181 $-1 #
edge $303 -1 $-1 $285 0 $304 0.005000000000000000104 $251 $305 forward @7 tangent #
loop $-1 -1 $-1 $211 $253 $113 #
color-adesk-attrib $-1 -1 $-1 $-1 $254 256 #
vertex $-1 -1 $-1 $282 $306 #
ellipse-curve $-1 -1 $-1 0.009997939652748755179 0.009997808495427307207 0 0 1 0 -0.2574994849999738822 0 0 1 I I #
color-adesk-attrib $-1 -1 $-1 $-1 $255 256 #
straight-curve $-1 -1 $-1 -0.1575017253472342504 0.4458714295642794978 2.051279286004831268e-17 0 -0.9999979999998984681 0 I I #
point $-1 -1 $-1 -0.1575017253472342504 0.004997818495427810113 2.051279286004831268e-17 #
loop $-1 -1 $-1 $283 $259 $113 #
color-adesk-attrib $-1 -1 $-1 $-1 $260 256 #
ellipse-curve $-1 -1 $-1 -0.1095903937841845033 0.009997808495427307207 -0.2887117764850398172 0 1 0 -0.03099993799999685093 0 0 1 I I #
point $-1 -1 $-1 -0.07859045578418764888 0.009997808495427307207 -0.2887117764850398172 #
loop $-1 -1 $-1 $-1 $271 $58 #
color-adesk-attrib $-1 -1 $-1 $-1 $272 256 #
vertex $-1 -1 $-1 $272 $307 #
ellipse-curve $-1 -1 $-1 0.009997939652748755179 0.0829976624954198855 0 0 1 0 0.2209995579999775583 0 0 1 I I #
color-adesk-attrib $-1 -1 $-1 $-1 $273 256 #
vertex $-1 -1 $-1 $273 $308 #
ellipse-curve $-1 -1 $-1 0.009997939652748755179 0.2549973184954024141 0 -0 -1 -0 -0.1874996249999809628 -0 -0 1 I I #
point $-1 -1 $-1 -0.1575017253472342504 0.2549973184954024141 2.051279286004831268e-17 #
edge $309 -1 $-1 $304 -3.141592653589793116 $304 3.141592653589793116 $281 $310 forward @7 unknown #
color-adesk-attrib $-1 -1 $-1 $-1 $282 256 #
vertex $-1 -1 $-1 $282 $311 #
straight-curve $-1 -1 $-1 0.2674974246527226374 0.009997808495427307207 3.153459200873098249e-17 0 -0.9999979999998984681 0 I I #
point $-1 -1 $-1 0.2674974246527226374 0.009997808495427307207 3.153459200873098249e-17 #
point $-1 -1 $-1 0.2309974976527263135 0.0829976624954198855 0 #
point $-1 -1 $-1 -0.1775016853472322076 0.2549973184954024141 0 #
color-adesk-attrib $-1 -1 $-1 $-1 $302 256 #
ellipse-curve $-1 -1 $-1 0.009997939652748755179 0.00499781849542781445 0 0 -1 0 -0.2574994849999738822 -0 -0 1 I I #
point $-1 -1 $-1 0.2674974246527226374 0.00499781849542781445 3.153459200873098249e-17 #
